# xmcd
#
# Track frame offsets: 
#        150
#        17060
#        29999
#        46188
#        67177
#        82005
#        101437
#        120136
#        146078
#        166003
#        183119
#        211175
#
# Disc length: 3043 seconds
#
# Revision: 0
# Processed by: cddbd v1.5.2PL0 Copyright (c) Steve Scherf et al.
# Submitted via: ExactAudioCopy v1.0b4
#
DISCID=9c0be10c
DTITLE=Maria Aurigema - Long Way Home
DYEAR=2014
DGENRE=Chicago Blues, Contemporary Blues, Modern Blues,
TTITLE0=Bad Fishing
TTITLE1=Sweet Baby
TTITLE2=We Are All Children
TTITLE3=Long Way Home
TTITLE4=When I'm Gone
TTITLE5=Can I Cry?
TTITLE6=One More from the Band
TTITLE7=Virgo
TTITLE8=Moonlight Man
TTITLE9=I'm Loving You
TTITLE10=Choo Choo Choo Boogie
TTITLE11=Early Morning Blues
EXTD=
EXTT0=
EXTT1=
EXTT2=
EXTT3=
EXTT4=
EXTT5=
EXTT6=
EXTT7=
EXTT8=
EXTT9=
EXTT10=
EXTT11=
PLAYORDER=
